<?xml version="1.0" standalone="no"?><!DOCTYPE svg PUBLIC "-//W3C//DTD SVG 1.1//EN" "http://www.w3.org/Graphics/SVG/1.1/DTD/svg11.dtd"><svg t="1639372163891" class="icon" viewBox="0 0 1024 1024" version="1.1" xmlns="http://www.w3.org/2000/svg" p-id="21796" xmlns:xlink="http://www.w3.org/1999/xlink" width="200" height="200"><defs><style type="text/css"></style></defs><path d="M293.42 344.78c-27.25 0-49.74 21.4-51.49 48.23-0.14 2.22-0.46 4.44-1.14 6.55L84.17 882.13c-1.07 3.28-2.43 11.51-2.88 14.93-2.79 21.04 21.96 49.3 46.1 46.1 7.63-1.01 7.63-1.01 17.67-3.77L624.9 783.66c2.11-0.69 4.33-1 6.55-1.14 26.82-1.75 48.23-24.24 48.23-51.49L293.42 344.78z" fill="#E782A8" p-id="21797"></path><path d="M123.56 958.67c-13.72 0-27.71-6.28-39.18-17.73-13.24-13.22-20.22-30.81-18.22-45.89 0.31-2.41 1.83-12.52 3.47-17.61l156.63-482.6c0.21-0.63 0.36-1.6 0.43-2.86 2.28-35.02 31.59-62.47 66.73-62.47 4.06 0 7.93 1.61 10.79 4.47l386.24 386.26c2.86 2.86 4.47 6.75 4.47 10.79 0 35.12-27.45 64.43-62.5 66.72-1.25 0.07-2.21 0.22-2.83 0.42L149.77 953.91c-11.3 3.12-12.03 3.28-20.38 4.38-1.94 0.25-3.88 0.38-5.83 0.38z m164.02-598.16c-16.41 2.68-29.31 16.43-30.41 33.48-0.27 3.87-0.86 7.22-1.86 10.28L98.69 886.84c-0.51 1.6-1.74 8.23-2.27 12.19-0.75 5.61 3.18 13.95 9.54 20.31 6.22 6.21 13.57 9.44 19.41 8.67 6.6-0.87 6.6-0.87 15.64-3.35l479.16-155.53c3.1-1.01 6.46-1.61 10.27-1.86 17.05-1.11 30.8-14.01 33.47-30.4L287.58 360.51zM918.82 402.96c-3.91 0-7.81-1.49-10.79-4.47-49.61-49.62-130.34-49.61-179.96 0-5.96 5.96-15.62 5.96-21.59 0s-5.96-15.62 0-21.59c61.54-61.53 161.65-61.5 223.13 0 5.96 5.96 5.96 15.62 0 21.59a15.186 15.186 0 0 1-10.79 4.47zM635.7 328.97c-3.91 0-7.81-1.49-10.79-4.47-5.96-5.96-5.96-15.62 0-21.59 49.61-49.61 49.61-130.33 0-179.95-5.96-5.96-5.96-15.62 0-21.59 5.96-5.96 15.62-5.96 21.59 0 61.51 61.51 61.51 161.61 0 223.12a15.212 15.212 0 0 1-10.8 4.48zM901.25 740.78c-3.91 0-7.81-1.49-10.79-4.47-5.96-5.96-5.96-15.62 0-21.59 49.61-49.61 49.61-130.33 0-179.95-49.58-49.6-130.31-49.61-179.96 0-5.96 5.96-15.62 5.96-21.59 0-5.96-5.96-5.96-15.62 0-21.59 61.51-61.51 161.62-61.53 223.13 0 61.51 61.51 61.51 161.61 0 223.12a15.189 15.189 0 0 1-10.79 4.48zM499.53 339.06c-3.91 0-7.81-1.49-10.79-4.47-5.96-5.96-5.96-15.62 0-21.59 49.61-49.61 49.61-130.33 0-179.95-49.6-49.6-130.33-49.61-179.96 0-5.96 5.96-15.62 5.96-21.59 0-5.96-5.96-5.96-15.62 0-21.59 61.51-61.51 161.62-61.53 223.13 0 61.51 61.51 61.51 161.61 0 223.12a15.172 15.172 0 0 1-10.79 4.48z" fill="#2D2A26" p-id="21798"></path><path d="M241.16 922.58c-1.68 0-3.4-0.28-5.07-0.87-7.96-2.81-12.14-11.52-9.33-19.48L288 728.49c2.82-7.95 11.58-12.13 19.47-9.33 7.96 2.81 12.14 11.52 9.33 19.48l-61.24 173.74a15.296 15.296 0 0 1-14.4 10.2zM389.22 866.04c-1.68 0-3.4-0.28-5.07-0.87-7.96-2.8-12.14-11.52-9.33-19.48l59.87-169.9c2.82-7.95 11.55-12.12 19.47-9.33 7.96 2.8 12.14 11.52 9.33 19.48l-59.87 169.9c-2.22 6.27-8.1 10.2-14.4 10.2z" fill="#2D2A26" p-id="21799"></path><path d="M659.4 809.69L210.92 361.21c-1.96-1.96-1.96-5.16 0-7.11L312.4 252.62c1.96-1.96 5.16-1.96 7.11 0L767.99 701.1c1.96 1.96 1.96 5.16 0 7.11L666.52 809.69a5.046 5.046 0 0 1-7.12 0z" fill="#FFFFFF" p-id="21800"></path><path d="M662.95 796.62c-24.64 0-47.75-9.54-65.07-26.87l-347.02-347c-17.32-17.33-26.86-40.44-26.86-65.1s9.54-47.77 26.86-65.09c35.9-35.9 94.28-35.9 130.18 0l347 347.01c35.88 35.88 35.88 94.29 0 130.17-17.32 17.34-40.43 26.88-65.09 26.88z m-347-500.39c-16.49 0-31.95 6.36-43.5 17.92-23.99 23.99-23.99 63.02 0 87l347.02 347c11.55 11.56 27.01 17.93 43.49 17.93 16.49 0 31.95-6.37 43.5-17.93 23.99-23.99 23.99-63.01 0-87l-347-347.01c-11.56-11.55-27.02-17.91-43.51-17.91z" fill="#2D2A26" p-id="21801"></path></svg>