<?xml version="1.0" standalone="no"?><!DOCTYPE svg PUBLIC "-//W3C//DTD SVG 1.1//EN" "http://www.w3.org/Graphics/SVG/1.1/DTD/svg11.dtd"><svg t="1639370786934" class="icon" viewBox="0 0 1024 1024" version="1.1" xmlns="http://www.w3.org/2000/svg" p-id="17076" xmlns:xlink="http://www.w3.org/1999/xlink" width="200" height="200"><defs><style type="text/css"></style></defs><path d="M846.748957 180.626885l-0.100721 2.937705-23.703082 432.430164a70.605639 70.605639 0 0 1-70.504918 66.912525H241.682466a70.605639 70.605639 0 0 1-70.504918-66.862164L147.457679 183.497443a33.57377 33.57377 0 0 0-67.04682 3.693114l23.719869 432.463738a137.736393 137.736393 0 0 0 137.551738 130.400525h510.75777a137.75318 137.75318 0 0 0 137.551738-130.467672L913.711843 187.17377c0.083934-1.376525 0.117508-2.702689 0.117508-4.028852a33.57377 33.57377 0 0 0-67.063607-2.518033z" fill="#2F2F2F" p-id="17077"></path><path d="M329.578597 684.233443l-67.147541-0.923279-3.659541 268.455869 67.147541 0.906492z" fill="#2F2F2F" p-id="17078"></path><path d="M400.352105 277.604721v234.093115h-95.416656v-69.732721h18.616656a33.57377 33.57377 0 1 0 0-67.147541h-18.633443a67.147541 67.147541 0 0 0-67.147541 67.147541v69.732721a67.147541 67.147541 0 0 0 67.147541 67.147541h95.433443a67.147541 67.147541 0 0 0 67.147541-67.147541V277.604721a33.57377 33.57377 0 1 0-67.147541 0zM593.837744 282.808656v234.093114h95.416656v-69.732721h-18.633443a33.57377 33.57377 0 1 1 0-67.147541h18.633443a67.147541 67.147541 0 0 1 67.147541 67.147541v69.732721a67.147541 67.147541 0 0 1-67.147541 67.147541h-95.416656a67.147541 67.147541 0 0 1-67.147541-67.147541V282.808656a33.57377 33.57377 0 1 1 67.147541 0z" fill="#35A8ED" p-id="17079"></path><path d="M33.222925 305.95777l940.015213 10.004984a33.57377 33.57377 0 0 0 0.705049-67.147541l-940.015213-10.004983a33.57377 33.57377 0 0 0-0.705049 67.14754zM739.010728 684.636328h-67.147541v268.455869h67.147541z" fill="#2F2F2F" p-id="17080"></path></svg>