<?xml version="1.0" standalone="no"?><!DOCTYPE svg PUBLIC "-//W3C//DTD SVG 1.1//EN" "http://www.w3.org/Graphics/SVG/1.1/DTD/svg11.dtd"><svg t="1639370598317" class="icon" viewBox="0 0 1024 1024" version="1.1" xmlns="http://www.w3.org/2000/svg" p-id="13187" xmlns:xlink="http://www.w3.org/1999/xlink" width="200" height="200"><defs><style type="text/css"></style></defs><path d="M290.816 198.656c-1.536 10.24 5.632 18.944 15.872 18.944h158.208c10.24 0 17.92-8.192 15.872-18.944l-19.456-128.512c-1.536-10.24-11.264-18.944-22.016-18.944h-107.52c-10.24 0-20.48 8.192-22.016 18.944l-18.944 128.512z m453.12 67.072H280.064c-39.424 0-71.68 32.256-71.68 71.68V901.12c0 39.424 32.256 71.68 71.68 71.68h463.872c39.424 0 71.68-32.256 71.68-71.68V337.408c0-39.424-32.256-71.68-71.68-71.68z m-220.672 398.848h-23.04c-18.432 0-33.28 14.848-33.28 33.28v23.04c0 18.432-13.312 33.28-29.696 33.28-16.384 0-29.696-14.848-29.696-33.28v-23.04c0-18.432-14.848-33.28-33.28-33.28h-23.04c-18.432 0-33.28-13.312-33.28-29.696 0-16.384 14.848-29.696 33.28-29.696h23.04c18.432 0 33.28-14.848 33.28-33.28v-23.04c0-18.432 13.312-33.28 29.696-33.28 16.384 0 29.696 14.848 29.696 33.28v23.04c0 18.432 14.848 33.28 33.28 33.28h23.04c18.432 0 33.28 13.312 33.28 29.696 0 16.384-14.848 29.696-33.28 29.696z m192.512-48.64c0 10.24-3.584 11.264-8.704 2.048l-119.808-240.128c-4.608-9.216 0-16.896 10.752-16.896h99.328c10.24 0 18.944 8.704 18.944 18.944v236.032z" p-id="13188"></path></svg>