<?xml version="1.0" standalone="no"?><!DOCTYPE svg PUBLIC "-//W3C//DTD SVG 1.1//EN" "http://www.w3.org/Graphics/SVG/1.1/DTD/svg11.dtd"><svg t="1639319410142" class="icon" viewBox="0 0 1024 1024" version="1.1" xmlns="http://www.w3.org/2000/svg" p-id="10917" xmlns:xlink="http://www.w3.org/1999/xlink" width="200" height="200"><defs><style type="text/css"></style></defs><path d="M291.84 414.72c-20.48-30.72-54.613333-51.2-92.16-51.2-61.44 0-110.933333 49.493333-110.933333 110.933333v1.706667c0 39.253333 20.48 73.386667 51.2 93.866667 20.48 30.72 54.613333 51.2 93.866666 51.2 61.44 0 110.933333-49.493333 110.933334-110.933334v-1.706666c-1.706667-39.253333-22.186667-73.386667-52.906667-93.866667zM580.266667 421.546667c-20.48-30.72-54.613333-51.2-93.866667-51.2-61.44 0-110.933333 49.493333-110.933333 110.933333v1.706667c0 39.253333 20.48 73.386667 51.2 93.866666 20.48 30.72 54.613333 51.2 93.866666 51.2 61.44 0 110.933333-49.493333 110.933334-110.933333v-1.706667c0-39.253333-20.48-73.386667-51.2-93.866666zM866.986667 414.72c-20.48-30.72-54.613333-51.2-93.866667-51.2-61.44 0-110.933333 49.493333-110.933333 110.933333v1.706667c0 39.253333 20.48 73.386667 51.2 93.866667 20.48 30.72 54.613333 51.2 93.866666 51.2 61.44 0 110.933333-49.493333 110.933334-110.933334v-1.706666c0-39.253333-20.48-73.386667-51.2-93.866667z" fill="#28015B" p-id="10918"></path><path d="M199.68 397.653333c-44.373333 0-76.8 32.426667-76.8 76.8 0 42.666667 34.133333 76.8 76.8 76.8 40.96 0 75.093333-34.133333 76.8-76.8 0-44.373333-32.426667-76.8-76.8-76.8z" fill="#FFFFFF" p-id="10919"></path><path d="M486.4 481.28m-76.8 0a76.8 76.8 0 1 0 153.6 0 76.8 76.8 0 1 0-153.6 0Z" fill="#FFFFFF" p-id="10920"></path><path d="M773.12 474.453333m-76.8 0a76.8 76.8 0 1 0 153.6 0 76.8 76.8 0 1 0-153.6 0Z" fill="#FFFFFF" p-id="10921"></path></svg>