<?xml version="1.0" standalone="no"?><!DOCTYPE svg PUBLIC "-//W3C//DTD SVG 1.1//EN" "http://www.w3.org/Graphics/SVG/1.1/DTD/svg11.dtd"><svg t="1639369630576" class="icon" viewBox="0 0 1024 1024" version="1.1" xmlns="http://www.w3.org/2000/svg" p-id="3627" xmlns:xlink="http://www.w3.org/1999/xlink" width="200" height="200"><defs><style type="text/css"></style></defs><path d="M638.906958 1023.996786a63.694503 63.694503 0 0 1-63.373138-64.272959v-191.983329H448.658999v191.983329a63.758776 63.758776 0 0 1-63.373138 64.272959H271.072813a138.508227 138.508227 0 0 1-139.536595-137.158495V585.141021a63.437411 63.437411 0 1 1 126.874822 0v301.69727c0 4.306288 5.20611 9.062487 12.854591 9.062488h50.711365v-127.967462A120.640344 120.640344 0 0 1 448.851818 639.901582h126.874821a120.640344 120.640344 0 0 1 126.810549 128.031735v127.967462h50.711365c7.519936 0 12.854592-4.820472 12.854591-9.062488V585.141021a63.437411 63.437411 0 1 1 126.874822 0v301.69727a138.508227 138.508227 0 0 1-139.536594 137.158495z m276.373725-536.100753l-403.248546-340.646683-403.248546 340.646683a62.923227 62.923227 0 0 1-89.339414-7.969846 64.272959 64.272959 0 0 1 7.969847-89.982143L471.347353 15.168418a62.794681 62.794681 0 0 1 81.369567 0l443.933329 374.775626a64.272959 64.272959 0 0 1 7.905574 89.982143 62.858954 62.858954 0 0 1-89.339413 7.969846z" fill="#8F9BB2" p-id="3628"></path></svg>